<svg width="87" height="34" viewBox="0 0 87 34" fill="none" xmlns="http://www.w3.org/2000/svg">
<rect width="87" height="34" rx="6" fill="black"/>
<path d="M22.772 10.13H31.106L30.746 12.398H25.31L24.842 15.404H29.216L28.892 17.528H24.518L23.996 20.732H29.774L29.414 23H20.738L22.772 10.13ZM34.7057 21.938L32.4377 13.586H35.1197L36.4337 19.256L39.3497 13.586H41.9777L34.9577 26.204H32.3297L34.7057 21.938ZM52.3598 13.586H54.9518L53.4578 23H50.8658L52.3598 13.586ZM44.1158 13.586H46.7078L46.1858 16.898H47.0138C49.4498 16.898 50.6678 17.828 50.6678 19.688C50.6678 20.744 50.3198 21.56 49.6238 22.136C48.9278 22.712 47.9438 23 46.6718 23H42.6218L44.1158 13.586ZM45.9158 18.608L45.5018 21.2H46.5998C47.0918 21.2 47.4698 21.074 47.7338 20.822C47.9978 20.558 48.1298 20.204 48.1298 19.76C48.1298 18.992 47.6798 18.608 46.7798 18.608H45.9158ZM59.4778 19.148C59.4778 20.612 60.1678 21.344 61.5478 21.344C62.6158 21.344 63.2878 20.906 63.5638 20.03H66.0298C65.7778 21.062 65.2498 21.848 64.4458 22.388C63.6418 22.928 62.6518 23.198 61.4758 23.198C60.1078 23.198 59.0038 22.832 58.1638 22.1C57.3238 21.368 56.9038 20.342 56.9038 19.022C56.9038 17.354 57.3958 15.998 58.3798 14.954C59.3638 13.898 60.6058 13.37 62.1058 13.37C63.5938 13.37 64.7158 13.82 65.4718 14.72C66.2398 15.608 66.5038 16.856 66.2638 18.464L66.1918 18.878H59.4778V19.148ZM62.0878 15.17C61.5478 15.17 61.0618 15.344 60.6298 15.692C60.2098 16.028 59.8978 16.556 59.6938 17.276H63.8338C63.9658 15.872 63.3838 15.17 62.0878 15.17Z" fill="white"/>
</svg>
